<svg width="65" height="97" viewBox="0 0 65 97" xmlns="http://www.w3.org/2000/svg" xmlns:xlink="http://www.w3.org/1999/xlink"><defs><path d="M31.2 3.592c-15.243 0-27.6 12.33-27.6 27.542" id="a"/><mask id="c" x="0" y="0" width="27.6" height="27.542" fill="#fff"><use xlink:href="#a"/></mask><path d="M61.464 29.778c-5.813 2.372-15.33 9.953-15.33 20.076" id="b"/><mask id="d" x="0" y="0" width="15.329" height="20.076" fill="#fff"><use xlink:href="#b"/></mask></defs><g transform="translate(1 1)" fill="none" fill-rule="evenodd"><path d="M23.6 89.013h2.556c0 1.164 10.088 1.04 10.088 0H38.8c0 2.695-3.533 5.987-7.655 5.987-4.063 0-7.545-3.292-7.545-5.987z" stroke="#2897C5" stroke-width="1.6" fill="#F2F9FB"/><path d="M18.822 85.484c-2.39-3.133-4.333-8.89-4.333-12.836v-7.536c0-3.363-2.007-8.21-4.38-10.583-.366-.367-8.972-9.077-9.957-19.3A33.476 33.476 0 0 1 0 32.038C0 14.37 13.996 0 31.2 0c17.206 0 31.2 14.374 31.2 32.04 0 11.55-9.78 21.91-10.196 22.344-2.328 2.432-4.294 7.335-4.294 10.707v7.558c0 3.926-1.812 9.748-4.04 12.976-.128.188-3.268 4.586-12.323 4.586-9.017 0-12.578-4.532-12.725-4.726z" stroke="#2897C5" stroke-width="1.6" fill="#FFF"/><path stroke="#FE346F" stroke-width="1.4" fill="#FFF" d="M45.504 21.095L33.587 29.78l9.216 1.396-26.68 10.095 12.963-9.23-7.77-1.165z"/><g stroke="#2897C5"><path d="M48 68.655c0-.803-7.522-1.596-16.8-1.596s-16.8.792-16.8 1.595" stroke-width=".8"/><path d="M14.4 68.655c0 .804 7.522 1.597 16.8 1.597S48 69.46 48 68.655" stroke-width="1.6"/></g><path d="M14.8 72.893c0 .804 7.343 1.597 16.4 1.597 9.057 0 16.4-.793 16.4-1.597M14.8 77.683c0 .804 7.343 1.597 16.4 1.597 9.057 0 16.4-.793 16.4-1.597M17 82.98c0 .695 6.358 1.382 14.2 1.382s14.2-.687 14.2-1.383" stroke="#2897C5" stroke-width=".8"/><path fill="#2897C5" d="M28.4 44.706H30v23.95h-1.6zM33.6 44.706h1.6v23.95h-1.6z"/><use stroke-opacity=".333" stroke="#2897C5" mask="url(#c)" stroke-width="1.6" fill="#FFF" xlink:href="#a"/><use stroke-opacity=".333" stroke="#2897C5" mask="url(#d)" stroke-width="1.6" fill="#FFF" transform="rotate(165 53.8 39.816)" xlink:href="#b"/></g></svg>